<svg width="800" height="520" viewBox="0 0 800 520" fill="none" xmlns="http://www.w3.org/2000/svg">
  <rect width="800" height="520" rx="36" fill="#F8FAFC"/>
  <rect x="74" y="88" width="652" height="344" rx="28" fill="#0D1B2A"/>
  <rect x="122" y="136" width="556" height="248" rx="20" fill="#1B263B"/>
  <path d="M122 162C122 147.641 133.641 136 148 136H652C666.359 136 678 147.641 678 162V172L424.62 318.33C409.122 327.28 389.878 327.28 374.38 318.33L122 172V162Z" fill="#E09F3E"/>
  <path d="M122 384L297.646 262.62L365.379 301.746C387.076 314.281 413.924 314.281 435.621 301.746L503.354 262.62L678 384" stroke="#F4D58D" stroke-width="18" stroke-linecap="round"/>
  <circle cx="644" cy="120" r="42" fill="#F4D58D"/>
</svg>
