<svg width="900" height="540" viewBox="0 0 900 540" fill="none" xmlns="http://www.w3.org/2000/svg">
  <rect width="900" height="540" rx="28" fill="#07111F"/>
  <rect x="54" y="56" width="792" height="428" rx="26" fill="#0A1829" stroke="#17324E" stroke-width="2"/>
  <rect x="96" y="96" width="712" height="72" rx="18" fill="#0C2235"/>
  <rect x="126" y="122" width="180" height="20" rx="10" fill="#61E4FF"/>
  <rect x="96" y="210" width="214" height="224" rx="22" fill="#0E2439" stroke="#1B3F61" stroke-width="2"/>
  <circle cx="202" cy="286" r="52" fill="#112C44"/>
  <path d="M150 392C150 354.444 180.444 324 218 324V324C255.556 324 286 354.444 286 392V404H150V392Z" fill="#61E4FF"/>
  <rect x="356" y="218" width="388" height="30" rx="15" fill="#D9B36C"/>
  <rect x="356" y="274" width="330" height="18" rx="9" fill="#6E89A9"/>
  <rect x="356" y="308" width="294" height="18" rx="9" fill="#6E89A9"/>
  <rect x="356" y="360" width="168" height="50" rx="16" fill="#102840" stroke="#214869" stroke-width="2"/>
  <path d="M390 386H488" stroke="#61E4FF" stroke-width="8" stroke-linecap="round"/>
</svg>
